<svg class="fill-current text-white-600" width="48" height="42" viewBox="0 0 48 42" fill="none" xmlns="http://www.w3.org/2000/svg">
<path d="M22.9263 1.592C23.3103 1.848 23.5023 2.184 23.5023 2.6C23.5023 3.048 23.2463 3.48 22.7343 3.896C21.0383 5.24 19.6623 6.984 18.6063 9.128C17.5503 11.24 16.4463 13.912 15.2943 17.144L14.8623 18.344C13.8063 21.192 12.7983 24.216 11.8383 27.416C10.8783 30.616 10.3183 32.504 10.1583 33.08C9.61431 34.968 9.11831 36.632 8.67031 38.072C8.54231 38.488 8.06231 38.92 7.23031 39.368C6.43031 39.784 5.67831 39.992 4.97431 39.992C4.17431 39.992 3.71031 39.688 3.58231 39.08C1.82231 30.376 0.942313 21.56 0.942313 12.632C0.942313 9.656 1.03831 6.68 1.23031 3.704C1.26231 3.128 1.67831 2.616 2.47831 2.168C3.31031 1.72 4.12631 1.496 4.92631 1.496C5.37431 1.496 5.72631 1.592 5.98231 1.784C6.27031 1.976 6.39831 2.248 6.36631 2.6C6.20631 5.896 6.12631 8.856 6.12631 11.48C6.12631 16.984 6.41431 22.088 6.99031 26.792C8.52631 22.056 9.69431 18.648 10.4943 16.568C11.4543 14.136 12.2703 12.168 12.9423 10.664C13.6143 9.128 14.4783 7.608 15.5343 6.104C16.5903 4.568 17.8223 3.32 19.2303 2.36C20.2543 1.656 21.1663 1.304 21.9663 1.304C22.3183 1.304 22.6383 1.4 22.9263 1.592ZM47.0482 10.376C46.6962 14.504 44.0242 17.672 39.0322 19.88C41.0162 20.936 42.2482 22.696 42.7282 25.16C42.9202 26.152 43.0162 27.432 43.0162 29C43.0162 29.928 42.9842 31.32 42.9202 33.176L42.8722 35C42.8722 37.176 43.3202 38.376 44.2162 38.6C44.9522 38.76 45.3202 39.064 45.3202 39.512C45.3202 40.024 44.8882 40.552 44.0242 41.096C43.1602 41.64 42.3602 41.912 41.6242 41.912C41.4642 41.912 41.3362 41.896 41.2402 41.864C39.8002 41.544 38.8242 40.824 38.3122 39.704C37.8002 38.584 37.5442 37.16 37.5442 35.432C37.5442 34.824 37.5762 33.976 37.6402 32.888C37.7042 31.864 37.7362 31.16 37.7362 30.776C37.7682 29.208 37.6722 27.848 37.4482 26.696C37.2562 25.512 36.7922 24.504 36.0562 23.672C35.1282 22.648 33.8002 22.088 32.0722 21.992C31.7842 22.056 31.2402 22.168 30.4402 22.328L27.5122 37.736C27.3842 38.344 26.8882 38.872 26.0242 39.32C25.1922 39.736 24.3602 39.944 23.5282 39.944C23.0802 39.944 22.7282 39.848 22.4722 39.656C22.2162 39.464 22.1202 39.192 22.1842 38.84C23.4002 32.504 24.4242 27.24 25.2562 23.048C24.3282 23.08 23.8642 22.808 23.8642 22.232C23.8642 21.88 24.0562 21.464 24.4402 20.984C24.8562 20.472 25.3202 20.104 25.8322 19.88L28.1842 7.4C28.3122 6.888 28.4722 6.088 28.6642 5C28.2482 5.128 27.8482 5.192 27.4642 5.192C27.0162 5.192 26.6642 5.096 26.4082 4.904C26.1522 4.712 26.0242 4.472 26.0242 4.184C26.0242 3.864 26.1842 3.528 26.5042 3.176C26.8562 2.824 27.3362 2.52 27.9442 2.264C29.1922 1.688 30.6802 1.304 32.4082 1.112C34.0402 0.919999 35.5122 0.823999 36.8242 0.823999C40.3442 0.823999 42.9362 1.496 44.6002 2.84C46.2642 4.184 47.0962 6.232 47.0962 8.984C47.0962 9.592 47.0802 10.056 47.0482 10.376ZM41.7682 12.392C41.9602 11.72 42.0562 11.112 42.0562 10.568C42.0562 8.744 41.2402 7.304 39.6082 6.248C37.9762 5.192 36.0402 4.584 33.8002 4.424L31.0642 18.872C31.2882 18.872 31.6242 18.84 32.0722 18.776C34.6002 18.328 36.7122 17.624 38.4082 16.664C40.1042 15.704 41.2242 14.28 41.7682 12.392Z" fill="black"/>
</svg>
